<svg id="SvgjsSvg1014" xmlns="http://www.w3.org/2000/svg" version="1.1" xmlns:xlink="http://www.w3.org/1999/xlink" xmlns:svgjs="http://svgjs.com/svgjs" width="16" height="16" viewBox="0 0 16 16"><title>Buy</title><desc>Created with Avocode.</desc><defs id="SvgjsDefs1015"></defs><path id="SvgjsPath1016" d="M481.5 1585.19C482.268 1585.19 482.891 1585.8200000000002 482.891 1586.5900000000001C482.891 1587.3600000000001 482.26800000000003 1587.9800000000002 481.5 1587.9800000000002C480.732 1587.9800000000002 480.109 1587.3600000000004 480.109 1586.5900000000001C480.109 1585.8200000000002 480.73199999999997 1585.19 481.5 1585.19ZM486.5 1585.16C487.285 1585.16 487.922 1585.8000000000002 487.922 1586.5900000000001C487.922 1587.38 487.285 1588.0200000000002 486.5 1588.0200000000002C485.715 1588.0200000000002 485.078 1587.38 485.078 1586.5900000000001C485.078 1585.8000000000002 485.715 1585.16 486.5 1585.16ZM489.296 1576.09C488.77 1575.9199999999998 488.209 1576.22 488.044 1576.75C488.044 1576.75 487.048 1579.25 486.53999999999996 1581.04C486.24499999999995 1581.85 485.86299999999994 1582.07 485.063 1582.07C484.406 1582.07 483.625 1582.07 482.938 1582.07C482.25 1582.07 481.78999999999996 1581.79 481.461 1581.04C480.545 1579.24 479.021 1575.99 479.021 1575.99C478.832 1575.41 478.071 1575.04 477.658 1575.04H475.002C474.449 1575.04 474.002 1575.49 474.002 1576.05C474.002 1576.6 474.449 1577.05 475.002 1577.05H477.25L480.046 1582.59C480.634 1583.58 481.18899999999996 1584.08 482.127 1584.08H485.97C487.192 1584.08 487.80300000000005 1583.6399999999999 488.14500000000004 1582.59L489.95300000000003 1577.35C490.11800000000005 1576.82 489.824 1576.26 489.29600000000005 1576.09C488.77000000000004 1575.9199999999998 489.82400000000007 1576.26 489.29600000000005 1576.09C488.77000000000004 1575.9199999999998 489.82400000000007 1576.26 489.29600000000005 1576.09C488.77000000000004 1575.9199999999998 489.82400000000007 1576.26 489.29600000000005 1576.09ZM483 1576.05L482.999 1574.02C483 1573.46 483.44800000000004 1573.01 484 1573.01C484.552 1573.01 485 1573.46 485.001 1574.02L485 1576.05H487.536L484 1579.6L480.465 1576.05Z " fill="#57c5a0" fill-opacity="1" transform="matrix(1,0,0,1,-474,-1573)"></path></svg>