<svg id="SvgjsSvg1017" xmlns="http://www.w3.org/2000/svg" version="1.1" xmlns:xlink="http://www.w3.org/1999/xlink" xmlns:svgjs="http://svgjs.com/svgjs" width="16" height="14" viewBox="0 0 16 14"><title>Cart Icon</title><desc>Created with Avocode.</desc><defs id="SvgjsDefs1018"></defs><path id="SvgjsPath1019" d="M1109.5 80.1828C1110.27 80.1828 1110.89 80.8099 1110.89 81.5836C1110.89 82.3572 1110.2700000000002 82.9842 1109.5 82.9842C1108.73 82.9842 1108.11 82.3572 1108.11 81.5836C1108.11 80.8099 1108.7299999999998 80.1828 1109.5 80.1828ZM1114.5 80.1515C1115.29 80.1515 1115.92 80.7926 1115.92 81.5836C1115.92 82.3745 1115.29 83.0158 1114.5 83.0158C1113.71 83.0158 1113.08 82.3745 1113.08 81.5836C1113.08 80.79260000000001 1113.71 80.1515 1114.5 80.1515ZM1117.3 71.0535C1116.77 70.8874 1116.21 71.1825 1116.04 71.7137C1116.04 71.7137 1115.05 74.2265 1114.54 76.0237C1114.25 76.8294 1113.86 77.05290000000001 1113.06 77.05290000000001C1112.4099999999999 77.05290000000001 1111.6299999999999 77.05290000000001 1110.94 77.05290000000001C1110.25 77.05290000000001 1109.79 76.76950000000001 1109.46 76.01450000000001C1108.55 74.21490000000001 1107.02 70.9582 1107.02 70.9582C1106.83 70.37480000000001 1106.07 70.0022 1105.66 70.0022H1103C1102.45 70.0022 1102 70.4526 1102 71.0094C1102 71.566 1102.45 72.0165 1103 72.0165H1105.25L1108.05 77.5761C1108.6299999999999 78.5675 1109.19 79.0673 1110.1299999999999 79.0673H1113.9699999999998C1115.1899999999998 79.0673 1115.7999999999997 78.6306 1116.1499999999999 77.5761L1117.9499999999998 72.31569999999999C1118.12 71.78429999999999 1117.8199999999997 71.21979999999999 1117.2999999999997 71.05349999999999C1116.7699999999998 70.88739999999999 1117.8199999999997 71.21979999999999 1117.2999999999997 71.05349999999999C1116.7699999999998 70.88739999999999 1117.8199999999997 71.21979999999999 1117.2999999999997 71.05349999999999C1116.7699999999998 70.88739999999999 1117.8199999999997 71.21979999999999 1117.2999999999997 71.05349999999999Z " fill="#6e6e6e" fill-opacity="1" transform="matrix(1,0,0,1,-1102,-70)"></path></svg>