<svg id="SvgjsSvg1000" xmlns="http://www.w3.org/2000/svg" version="1.1" xmlns:xlink="http://www.w3.org/1999/xlink" xmlns:svgjs="http://svgjs.com/svgjs" width="10" height="20" viewBox="0 0 10 20"><title>Facebook copy</title><desc>Created with Avocode.</desc><defs id="SvgjsDefs1001"></defs><path id="SvgjsPath1007" d="M940.158 2179.47C940.158 2180.58 940.158 2182.56 940.158 2182.56C940.158 2182.56 937.8870000000001 2182.33 937.318 2183.21C937.008 2183.68 937.192 2185.08 937.164 2186.08C938.156 2186.08 939.186 2186.08 940.177 2186.08C939.922 2187.25 939.74 2188.0499999999997 939.553 2189.06C938.695 2189.06 937.148 2189.06 937.148 2189.06V2198.65C937.148 2198.65 934.309 2198.65 932.975 2198.65C932.975 2195.69 932.974 2192.2400000000002 932.975 2189.1C932.326 2189.1 931.847 2189.1 931.1990000000001 2189.1C931.1990000000001 2187.99 931.1990000000001 2187.19 931.1990000000001 2186.08C931.8280000000001 2186.08 932.326 2186.08 932.955 2186.08C933.0450000000001 2183.87 933.0790000000001 2181.69 934.173 2180.58C935.402 2179.3199999999997 936.575 2179.47 940.158 2179.47Z " fill="#7d7d7d" fill-opacity="1" transform="matrix(1,0,0,1,-931,-2179)"></path></svg>