<svg id="SvgjsSvg1018" xmlns="http://www.w3.org/2000/svg" version="1.1" xmlns:xlink="http://www.w3.org/1999/xlink" xmlns:svgjs="http://svgjs.com/svgjs" width="15" height="15" viewBox="0 0 15 15"><title>Shape 36</title><desc>Created with Avocode.</desc><defs id="SvgjsDefs1019"></defs><path id="SvgjsPath1020" d="M889 493H894C894.552 493 895 493.448 895 494V499C895 499.552 894.552 500 894 500H889C888.448 500 888 499.552 888 499V494C888 493.448 888.448 493 889 493ZM897 493H902C902.552 493 903 493.448 903 494V499C903 499.552 902.552 500 902 500H897C896.448 500 896 499.552 896 499V494C896 493.448 896.448 493 897 493ZM889 501H894C894.552 501 895 501.448 895 502V507C895 507.552 894.552 508 894 508H889C888.448 508 888 507.552 888 507V502C888 501.448 888.448 501 889 501ZM897 501H902C902.552 501 903 501.448 903 502V507C903 507.552 902.552 508 902 508H897C896.448 508 896 507.552 896 507V502C896 501.448 896.448 501 897 501Z " fill="#bcb5a7" fill-opacity="1" transform="matrix(1,0,0,1,-888,-493)"></path></svg>