<svg id="SvgjsSvg1021" xmlns="http://www.w3.org/2000/svg" version="1.1" xmlns:xlink="http://www.w3.org/1999/xlink" xmlns:svgjs="http://svgjs.com/svgjs" width="16" height="12" viewBox="0 0 16 12"><title>Shape 1</title><desc>Created with Avocode.</desc><defs id="SvgjsDefs1022"></defs><path id="SvgjsPath1023" d="M928 494C928.552 494 929 494.448 929 495C929 495.552 928.552 496 928 496C927.448 496 927 495.552 927 495C927 494.448 927.448 494 928 494ZM928 499C928.552 499 929 499.448 929 500C929 500.552 928.552 501 928 501C927.448 501 927 500.552 927 500C927 499.448 927.448 499 928 499ZM928 504C928.552 504 929 504.448 929 505C929 505.552 928.552 506 928 506C927.448 506 927 505.552 927 505C927 504.448 927.448 504 928 504ZM932 494H942C942.552 494 943 494.448 943 495C943 495.552 942.552 496 942 496H932C931.448 496 931 495.552 931 495C931 494.448 931.448 494 932 494ZM932 499H942C942.552 499 943 499.448 943 500C943 500.552 942.552 501 942 501H932C931.448 501 931 500.552 931 500C931 499.448 931.448 499 932 499ZM932 504H942C942.552 504 943 504.448 943 505C943 505.552 942.552 506 942 506H932C931.448 506 931 505.552 931 505C931 504.448 931.448 504 932 504Z " fill="#bcb5a7" fill-opacity="1" transform="matrix(1,0,0,1,-927,-494)"></path></svg>