<svg id="SvgjsSvg1017" xmlns="http://www.w3.org/2000/svg" version="1.1" xmlns:xlink="http://www.w3.org/1999/xlink" xmlns:svgjs="http://svgjs.com/svgjs" width="20" height="8" viewBox="0 0 20 8"><title>Flickr copy</title><desc>Created with Avocode.</desc><defs id="SvgjsDefs1018"></defs><path id="SvgjsPath1019" d="M1110.36 2188.97C1110.36 2191.1299999999997 1108.57 2192.8799999999997 1106.37 2192.8799999999997C1104.1599999999999 2192.8799999999997 1102.37 2191.1299999999997 1102.37 2188.97C1102.37 2186.8199999999997 1104.1599999999999 2185.0699999999997 1106.37 2185.0699999999997C1108.57 2185.0699999999997 1110.36 2186.8199999999997 1110.36 2188.97ZM1121.58 2188.97C1121.58 2191.1299999999997 1119.79 2192.8799999999997 1117.58 2192.8799999999997C1115.3799999999999 2192.8799999999997 1113.59 2191.1299999999997 1113.59 2188.97C1113.59 2186.8199999999997 1115.3799999999999 2185.0699999999997 1117.58 2185.0699999999997C1119.79 2185.0699999999997 1121.58 2186.8199999999997 1121.58 2188.97Z " fill="#7d7d7d" fill-opacity="1" transform="matrix(1,0,0,1,-1102,-2185)"></path></svg>