<svg id="SvgjsSvg1011" xmlns="http://www.w3.org/2000/svg" version="1.1" xmlns:xlink="http://www.w3.org/1999/xlink" xmlns:svgjs="http://svgjs.com/svgjs" width="20" height="17" viewBox="0 0 20 17"><title>G+ copy</title><desc>Created with Avocode.</desc><defs id="SvgjsDefs1012"></defs><path id="SvgjsPath1013" d="M1024.94 2182.24C1024.52 2182.24 1024.1100000000001 2182.24 1023.59 2182.24C1024.45 2182.95 1025.21 2183.8599999999997 1025.15 2185.3399999999997C1025.0800000000002 2186.8299999999995 1024.14 2187.43 1023.2700000000001 2188.1299999999997C1023.07 2188.2899999999995 1022.7700000000001 2188.6299999999997 1022.69 2188.8299999999995C1022.3800000000001 2189.6499999999996 1023.22 2190.1199999999994 1023.6500000000001 2190.4399999999996C1024.0400000000002 2190.7299999999996 1024.38 2190.99 1024.68 2191.2499999999995C1025.3200000000002 2191.7899999999995 1025.92 2192.4899999999993 1025.92 2193.6999999999994C1025.91 2195.0199999999995 1025.15 2195.939999999999 1024.3000000000002 2196.5499999999993C1023.4500000000002 2197.1599999999994 1022.2300000000001 2197.5799999999995 1020.9800000000001 2197.6999999999994C1019.5300000000001 2197.8299999999995 1018.1600000000001 2197.6599999999994 1017.1000000000001 2197.189999999999C1016.1500000000001 2196.769999999999 1015.1700000000002 2195.979999999999 1015.1700000000002 2194.679999999999C1015.1700000000002 2194.009999999999 1015.4600000000002 2193.339999999999 1015.8300000000002 2192.929999999999C1017.6000000000001 2190.959999999999 1018.8600000000001 2191.269999999999 1021.1700000000002 2191.099999999999C1021.0500000000002 2190.849999999999 1020.7100000000002 2190.559999999999 1020.5900000000001 2190.189999999999C1020.4400000000002 2189.729999999999 1020.5300000000002 2189.1999999999994 1020.7400000000001 2188.829999999999C1019.2600000000001 2189.019999999999 1018.0700000000002 2188.5899999999992 1017.2900000000001 2187.829999999999C1016.6200000000001 2187.189999999999 1016.1 2186.0899999999992 1016.3700000000001 2184.829999999999C1016.6000000000001 2183.749999999999 1017.2400000000001 2182.969999999999 1018.0400000000001 2182.429999999999C1018.8800000000001 2181.869999999999 1019.9000000000001 2181.469999999999 1021.2300000000001 2181.469999999999C1022.8700000000001 2181.469999999999 1024.6200000000001 2181.469999999999 1026.3700000000001 2181.469999999999C1028.1100000000001 2181.469999999999 1024.94 2182.239999999999 1024.94 2182.239999999999ZM1018.41 2183.48C1018.12 2184.35 1018.35 2185.52 1018.66 2186.28C1019 2187.1000000000004 1019.52 2187.77 1020.16 2188.0800000000004C1021.1899999999999 2188.57 1022.55 2188.07 1022.9699999999999 2187.1900000000005C1023.0899999999999 2186.9500000000007 1023.1399999999999 2186.5900000000006 1023.16 2186.3300000000004C1023.27 2184.6400000000003 1022.37 2183.01 1021.36 2182.4300000000003C1021.0500000000001 2182.2500000000005 1020.5600000000001 2182.1600000000003 1020.1 2182.2100000000005C1019.21 2182.3000000000006 1018.62 2182.8700000000003 1018.41 2183.4800000000005ZM1018.25 2192.41C1017.9 2192.62 1017.5 2192.93 1017.27 2193.5299999999997C1017.12 2193.93 1017.12 2194.4599999999996 1017.23 2194.8599999999997C1017.5600000000001 2196.0099999999998 1018.9200000000001 2196.6699999999996 1020.35 2196.7999999999997C1021.89 2196.93 1023.45 2196.6899999999996 1024.1200000000001 2195.6C1024.48 2195 1024.49 2194.14 1024.13 2193.5499999999997C1023.7100000000002 2192.8599999999997 1023.1400000000001 2192.56 1022.5200000000001 2192.1299999999997C1022.3400000000001 2191.9999999999995 1022.1500000000001 2191.7799999999997 1021.9000000000001 2191.7099999999996C1021.7300000000001 2191.6699999999996 1021.3800000000001 2191.6999999999994 1021.19 2191.7099999999996C1019.97 2191.7699999999995 1018.99 2191.9499999999994 1018.25 2192.4099999999994ZM1030.18 2181.49C1030.49 2181.49 1031.02 2181.49 1031.3400000000001 2181.49C1031.3400000000001 2182.49 1031.3200000000002 2183.47 1031.3200000000002 2184.47C1032.3000000000002 2184.5099999999998 1033.3200000000002 2184.4599999999996 1034.3400000000001 2184.47C1034.3400000000001 2184.7999999999997 1034.3400000000001 2185.3399999999997 1034.3400000000001 2185.66C1033.3200000000002 2185.66 1032.3700000000001 2185.66 1031.3600000000001 2185.66C1031.3600000000001 2186.69 1031.3400000000001 2187.6299999999997 1031.3400000000001 2188.66C1031.0200000000002 2188.66 1030.5200000000002 2188.66 1030.2 2188.66C1030.2 2187.64 1030.18 2186.68 1030.18 2185.66C1029.19 2185.62 1028.19 2185.67 1027.17 2185.66C1027.17 2185.3399999999997 1027.17 2184.7999999999997 1027.17 2184.47C1028.2 2184.47 1029.13 2184.47 1030.16 2184.47C1030.16 2183.48 1030.18 2182.54 1030.18 2181.5499999999997C1030.18 2181.5199999999995 1030.16 2181.4999999999995 1030.18 2181.49Z " fill="#7d7d7d" fill-opacity="1" transform="matrix(1,0,0,1,-1015,-2181)"></path></svg>