<svg id="SvgjsSvg1014" xmlns="http://www.w3.org/2000/svg" version="1.1" xmlns:xlink="http://www.w3.org/1999/xlink" xmlns:svgjs="http://svgjs.com/svgjs" width="19" height="20" viewBox="0 0 19 20"><title>Leakedin copy</title><desc>Created with Avocode.</desc><defs id="SvgjsDefs1015"></defs><path id="SvgjsPath1016" d="M1059 2198V2185H1063V2198ZM1075.68 2186.18C1076.53 2186.89 1076.96 2188.06 1076.96 2189.69V2198.4700000000003H1073.47V2190.5400000000004C1073.47 2189.8600000000006 1073.38 2189.3300000000004 1073.19 2188.9600000000005C1072.8600000000001 2188.2900000000004 1072.23 2187.9600000000005 1071.29 2187.9600000000005C1070.1499999999999 2187.9600000000005 1069.36 2188.4500000000003 1068.93 2189.4300000000003C1068.71 2189.9500000000003 1068.6000000000001 2190.61 1068.6000000000001 2191.4100000000003V2198.4700000000003H1065.5300000000002V2185.2700000000004H1068.4900000000002V2187.3600000000006C1068.9300000000003 2186.6900000000005 1069.3400000000001 2186.2100000000005 1069.7300000000002 2185.9100000000008C1070.4300000000003 2185.3800000000006 1071.3100000000002 2185.120000000001 1072.3900000000003 2185.120000000001C1073.7300000000002 2185.120000000001 1074.8300000000004 2185.4700000000007 1075.6800000000003 2186.1800000000007ZM1063.21 2181.98C1063.21 2183.15 1062.26 2184.1 1061.1000000000001 2184.1C1059.93 2184.1 1058.9900000000002 2183.15 1058.9900000000002 2181.98C1058.9900000000002 2180.82 1059.9300000000003 2179.87 1061.1000000000001 2179.87C1062.2600000000002 2179.87 1063.21 2180.8199999999997 1063.21 2181.98Z " fill="#7d7d7d" fill-opacity="1" transform="matrix(1,0,0,1,-1058,-2179)"></path></svg>