<svg id="SvgjsSvg1020" xmlns="http://www.w3.org/2000/svg" version="1.1" xmlns:xlink="http://www.w3.org/1999/xlink" xmlns:svgjs="http://svgjs.com/svgjs" width="14" height="14" viewBox="0 0 14 14"><title>Search Icon</title><desc>Created with Avocode.</desc><defs id="SvgjsDefs1021"></defs><path id="SvgjsPath1022" d="M1006.68 27.2793L1003.9 24.506999999999998C1004.61 23.522399999999998 1005.03 22.318399999999997 1005.03 21.013799999999996C1005.03 17.700199999999995 1002.3399999999999 15.013599999999997 999.031 15.013599999999997C995.718 15.013599999999997 993.031 17.700199999999995 993.031 21.013799999999996C993.031 24.327099999999994 995.718 27.013899999999996 999.031 27.013899999999996C1000.3199999999999 27.013899999999996 1001.51 26.605499999999996 1002.4799999999999 25.916199999999996L1005.2599999999999 28.693599999999996C1005.6499999999999 29.083999999999996 1006.2899999999998 29.083999999999996 1006.6799999999998 28.693599999999996C1007.0699999999998 28.303899999999995 1007.0699999999998 27.670099999999998 1006.6799999999998 27.279299999999996ZM999.031 25.0138C996.822 25.0138 995.031 23.2229 995.031 21.0138C995.031 18.8046 996.822 17.0137 999.031 17.0137C1001.2399999999999 17.0137 1003.03 18.8046 1003.03 21.0138C1003.03 23.2229 1001.24 25.0138 999.031 25.0138Z " fill="#7e7e7e" fill-opacity="1" transform="matrix(1,0,0,1,-993,-15)"></path></svg>