<svg id="SvgjsSvg1000" xmlns="http://www.w3.org/2000/svg" version="1.1" xmlns:xlink="http://www.w3.org/1999/xlink" xmlns:svgjs="http://svgjs.com/svgjs" width="14" height="14" viewBox="0 0 14 14"><title>Shape 2 copy</title><desc>Created with Avocode.</desc><defs id="SvgjsDefs1001"></defs><path id="SvgjsPath1007" d="M661 404C657.134 404 654 407.134 654 411C654 414.866 657.134 418 661 418C664.866 418 668 414.866 668 411C668 407.134 664.866 404 661 404ZM664.836 410.414L661.7330000000001 413.586C661.73 413.59000000000003 661.729 413.595 661.725 413.599L661.485 413.844C661.352 413.98 661.178 414.04699999999997 661.003 414.046C660.8280000000001 414.04699999999997 660.654 413.98 660.522 413.844L660.2810000000001 413.599C660.277 413.59499999999997 660.2760000000001 413.59 660.273 413.585L657.1700000000001 410.414C656.9040000000001 410.144 656.9040000000001 409.705 657.1700000000001 409.43399999999997L657.4090000000001 409.18999999999994C657.6740000000001 408.91799999999995 658.1040000000002 408.91799999999995 658.368 409.18999999999994L661.003 411.88199999999995L663.638 409.18999999999994C663.902 408.91799999999995 664.332 408.91799999999995 664.597 409.18999999999994L664.836 409.43399999999997C665.102 409.705 665.102 410.14399999999995 664.836 410.414Z " fill="#ffffff" fill-opacity="1" transform="matrix(1,0,0,1,-654,-404)"></path></svg>