<svg id="SvgjsSvg1011" xmlns="http://www.w3.org/2000/svg" version="1.1" xmlns:xlink="http://www.w3.org/1999/xlink" xmlns:svgjs="http://svgjs.com/svgjs" width="17" height="13" viewBox="0 0 17 13"><title>Share</title><desc>Created with Avocode.</desc><defs id="SvgjsDefs1012"></defs><path id="SvgjsPath1013" d="M435.973 1582C435.973 1582 437.512 1579.56 442.96000000000004 1579.56V1582L448.00000000000006 1578.02L442.96000000000004 1574C442.96000000000004 1574 442.96000000000004 1576.34 442.95900000000006 1576.34C442.8310000000001 1576.34 435.97300000000007 1576.6299999999999 435.97300000000007 1582ZM445 1583C444.979 1583 445 1583.45 445 1584V1584H444.99V1586H432.99V1576H436.99V1576C436.994 1576 436.996 1576 437 1576C437.553 1576 438 1576.02 438 1576C438 1575.45 437.553 1575 437 1575C436.996 1575 436.994 1575 436.99 1575V1575H433.99C432.887 1575 431.99 1575.9 431.99 1577V1585C431.99 1586.11 432.887 1587 433.99 1587H443.99C445.063 1587 445.93 1586.16 445.981 1585.1C445.985 1585.06 446 1585.03 446 1585V1584C446 1583.45 445.553 1583 445 1583Z " fill="#6e6e6e" fill-opacity="1" transform="matrix(1,0,0,1,-431,-1574)"></path></svg>