<svg id="SvgjsSvg1024" xmlns="http://www.w3.org/2000/svg" version="1.1" xmlns:xlink="http://www.w3.org/1999/xlink" xmlns:svgjs="http://svgjs.com/svgjs" width="14" height="14" viewBox="0 0 14 14"><title>Shape 2 copy 4</title><desc>Created with Avocode.</desc><defs id="SvgjsDefs1025"></defs><path id="SvgjsPath1026" d="M1150 493C1146.13 493 1143 496.134 1143 500C1143 503.866 1146.13 507 1150 507C1153.87 507 1157 503.866 1157 500C1157 496.134 1153.87 493 1150 493ZM1153.84 499.414L1150.73 502.586C1150.73 502.59000000000003 1150.73 502.595 1150.72 502.599L1150.48 502.844C1150.35 502.98 1150.18 503.04699999999997 1150 503.046C1149.83 503.04699999999997 1149.65 502.98 1149.52 502.844L1149.28 502.599C1149.28 502.59499999999997 1149.28 502.59 1149.27 502.585L1146.17 499.414C1145.9 499.144 1145.9 498.705 1146.17 498.43399999999997L1146.41 498.18999999999994C1146.67 497.91799999999995 1147.1000000000001 497.91799999999995 1147.3700000000001 498.18999999999994L1150.0000000000002 500.88199999999995L1152.6400000000003 498.18999999999994C1152.9000000000003 497.91799999999995 1153.3300000000004 497.91799999999995 1153.6000000000004 498.18999999999994L1153.8400000000004 498.43399999999997C1154.1000000000004 498.705 1154.1000000000004 499.14399999999995 1153.8400000000004 499.414Z " fill="#bcb5a7" fill-opacity="1" transform="matrix(1,0,0,1,-1143,-493)"></path></svg>