<svg id="SvgjsSvg1008" xmlns="http://www.w3.org/2000/svg" version="1.1" xmlns:xlink="http://www.w3.org/1999/xlink" xmlns:svgjs="http://svgjs.com/svgjs" width="20" height="17" viewBox="0 0 20 17"><title>Twitter copy</title><desc>Created with Avocode.</desc><defs id="SvgjsDefs1009"></defs><path id="SvgjsPath1010" d="M989.952 2183.12C989.86 2183.8399999999997 988.814 2184.5699999999997 988.18 2185.12C988.8059999999999 2194.33 978.356 2200.08 970.7629999999999 2195.41C972.8919999999999 2195.43 975.29 2194.8399999999997 976.5569999999999 2193.64C974.7149999999999 2193.3399999999997 973.4099999999999 2192.5099999999998 972.9039999999999 2190.87C973.4429999999999 2190.8199999999997 974.2009999999999 2190.99 974.5649999999998 2190.7599999999998C972.8799999999999 2190.12 971.5469999999998 2189.1299999999997 971.4649999999998 2186.89C972.0649999999998 2186.95 972.3769999999998 2187.2999999999997 973.1249999999998 2187.22C972.0359999999997 2186.52 970.7919999999998 2183.87 971.9079999999998 2181.91C973.8849999999998 2184.1 976.3529999999998 2185.7999999999997 980.2099999999998 2186.1099999999997C979.2529999999998 2182.0399999999995 984.6469999999998 2179.5199999999995 987.0739999999998 2182.4599999999996C988.0169999999998 2182.2599999999998 988.8119999999999 2181.9099999999994 989.6189999999998 2181.5699999999997C989.2889999999998 2182.4999999999995 988.6169999999998 2183.08 987.9589999999998 2183.68C988.6739999999999 2183.54 989.4299999999998 2183.45 989.9519999999999 2183.12Z " fill="#7d7d7d" fill-opacity="1" transform="matrix(1,0,0,1,-970,-2181)"></path></svg>