<svg id="SvgjsSvg1000" xmlns="http://www.w3.org/2000/svg" version="1.1" xmlns:xlink="http://www.w3.org/1999/xlink" xmlns:svgjs="http://svgjs.com/svgjs" width="16" height="10" viewBox="0 0 16 10"><title>View</title><desc>Created with Avocode.</desc><defs id="SvgjsDefs1001"></defs><path id="SvgjsPath1007" d="M364.983 1580.89C364.97700000000003 1580.8700000000001 364.98 1580.8500000000001 364.972 1580.8300000000002C364.96999999999997 1580.8200000000002 364.962 1580.8100000000002 364.959 1580.8100000000002C364.954 1580.7900000000002 364.955 1580.7800000000002 364.949 1580.7700000000002C363.49600000000004 1577.9900000000002 360.33500000000004 1576.0000000000002 357 1576.0000000000002C353.665 1576.0000000000002 350.504 1577.9900000000002 349.052 1580.7600000000002C349.045 1580.7800000000002 349.04600000000005 1580.7900000000002 349.041 1580.8000000000002C349.038 1580.8100000000002 349.031 1580.8100000000002 349.028 1580.8200000000002C349.02000000000004 1580.8400000000001 349.023 1580.8700000000001 349.01800000000003 1580.89C349.009 1580.92 349.00000000000006 1580.96 349.00000000000006 1581C349.00000000000006 1581.04 349.00900000000007 1581.07 349.01800000000003 1581.11C349.023 1581.1299999999999 349.02000000000004 1581.1499999999999 349.028 1581.1699999999998C349.031 1581.1799999999998 349.038 1581.1899999999998 349.041 1581.1999999999998C349.046 1581.2099999999998 349.045 1581.2199999999998 349.052 1581.2299999999998C350.504 1584.0099999999998 353.665 1585.9999999999998 357 1585.9999999999998C360.335 1585.9999999999998 363.496 1584.0199999999998 364.949 1581.2399999999998C364.955 1581.2199999999998 364.954 1581.2099999999998 364.959 1581.1999999999998C364.962 1581.1899999999998 364.97 1581.1899999999998 364.972 1581.1799999999998C364.97999999999996 1581.1599999999999 364.977 1581.1399999999999 364.983 1581.11C364.991 1581.08 365 1581.04 365 1581C365 1580.96 364.991 1580.93 364.983 1580.89ZM357 1585C354.189 1585 351.372 1583.4 350 1581C351.379 1578.59 354.192 1577 357 1577C359.811 1577 362.628 1578.6 364 1581C362.621 1583.41 359.808 1585 357 1585ZM357 1579C356.999 1579 356.998 1579 356.997 1579C355.89300000000003 1579 354.999 1579.9 354.999 1581C354.999 1581.14 355.11100000000005 1581.25 355.249 1581.25C355.387 1581.25 355.499 1581.14 355.499 1581C355.499 1580.17 356.172 1579.5 357 1579.5V1579.5C357.138 1579.5 357.25 1579.39 357.25 1579.25C357.25 1579.11 357.138 1579 357 1579ZM356.988 1577.5C355.052 1577.5 353.483 1579.07 353.483 1581C353.483 1582.94 355.052 1584.51 356.988 1584.51C358.924 1584.51 360.493 1582.94 360.493 1581C360.493 1579.07 358.924 1577.5 356.988 1577.5ZM356.988 1584.01C355.332 1584.01 353.984 1582.66 353.984 1581C353.984 1579.35 355.332 1578 356.988 1578C358.645 1578 359.993 1579.35 359.993 1581C359.993 1582.66 358.645 1584.01 356.988 1584.01Z " fill="#6e6e6e" fill-opacity="1" transform="matrix(1,0,0,1,-349,-1576)"></path></svg>