<svg id="SvgjsSvg1008" xmlns="http://www.w3.org/2000/svg" version="1.1" xmlns:xlink="http://www.w3.org/1999/xlink" xmlns:svgjs="http://svgjs.com/svgjs" width="16" height="16" viewBox="0 0 16 16"><title>Wishlist</title><desc>Created with Avocode.</desc><defs id="SvgjsDefs1009"></defs><path id="SvgjsPath1010" d="M405.927 1578.03C405.78900000000004 1577.6299999999999 405.434 1577.34 405.007 1577.28L400.851 1576.66L399.044 1572.91C398.85499999999996 1572.52 398.447 1572.26 398 1572.26C397.553 1572.26 397.146 1572.52 396.956 1572.91L395.149 1576.66L390.993 1577.28C390.566 1577.34 390.211 1577.6299999999999 390.073 1578.03C389.936 1578.43 390.03999999999996 1578.87 390.34099999999995 1579.17L393.38699999999994 1582.21L392.6809999999999 1586.43C392.6089999999999 1586.8600000000001 392.79299999999995 1587.28 393.15399999999994 1587.53C393.3519999999999 1587.67 393.5849999999999 1587.74 393.8179999999999 1587.74C394.00999999999993 1587.74 394.20199999999994 1587.69 394.37699999999995 1587.6L397.99999999999994 1585.6499999999999L401.62399999999997 1587.6C401.79799999999994 1587.6899999999998 401.98999999999995 1587.74 402.18199999999996 1587.74C402.41499999999996 1587.74 402.64699999999993 1587.67 402.84599999999995 1587.53C403.20699999999994 1587.28 403.39099999999996 1586.86 403.31999999999994 1586.43L402.61299999999994 1582.21L405.65899999999993 1579.17C405.96099999999996 1578.8700000000001 406.0639999999999 1578.43 405.9269999999999 1578.03ZM401.788 1581.43C401.53200000000004 1581.68 401.416 1582.04 401.475 1582.4L402.182 1586.6100000000001L398.558 1584.66C398.384 1584.5700000000002 398.192 1584.52 398 1584.52C397.808 1584.52 397.616 1584.57 397.442 1584.66L393.818 1586.6100000000001L394.525 1582.4C394.584 1582.0400000000002 394.46799999999996 1581.68 394.21299999999997 1581.43L391.167 1578.39L395.323 1577.7700000000002C395.703 1577.7100000000003 396.03 1577.4800000000002 396.193 1577.14L398 1573.39L399.807 1577.14C399.97 1577.48 400.297 1577.71 400.677 1577.7700000000002L404.833 1578.39Z " fill="#6e6e6e" fill-opacity="1" transform="matrix(1,0,0,1,-390,-1572)"></path></svg>